<?xml version="1.0" encoding="UTF-8"?>
<svg id="Layer_1" data-name="Layer 1" xmlns="http://www.w3.org/2000/svg" width="1986.7033" height="1887.5983" viewBox="0 0 1986.7033 1887.5983">
  <path d="M1344.9396,1568.1424h-338.802c16.3719,91.9339,29.5202,181.313-48.4268,253.5784-44.6084,41.357-95.7064,65.3706-155.4843,63.8736-151.7435-3.8002-219.5988-112.717-195.8204-310.0358-84.5334-56.803-95.4768-68.1794-35.9644-152.531,101.7815-144.263,95.5154-279.8976,28.7017-438.0075-91.1942-215.8048-158.9102-441.495-236.4383-663.0355-23.3489-66.7208-71.9552-104.8674-137.1201-127.2964-59.4378-20.4578-118.1645-43.1271-176.4895-66.5915C12.3824,113.3268-9.8682,86.5136,4.3235,45.1014,19.4525,.9541,55.9227-8.1851,95.024,6.4793c102.262,38.3518,207.0846,72.8816,302.8938,123.8827,36.9254,19.6561,58.6646,77.2302,76.043,121.8973,33.6438,86.4728,30.3287,87.7009,120.9487,87.6616,429.8786-.1867,859.7574-.4526,1289.6361-.4215,99.1407,.0072,119.5286,27.806,89.2653,123.0564-80.597,253.6714-162.9594,506.7912-242.0773,760.9184-17.7086,56.8798-47.6622,78.9149-108.317,78.1732-241.8863-2.9578-483.8277-1.3632-725.7484-1.6304q-126.5012-.1398-178.3914,132.0662c21.8999,0,40.9269,.0002,59.9539,.0002,323.8053-.0012,647.6106-.0218,971.4158,.0507,16.7255,.0037,38.5011-5.6602,49.11,2.5944,21.1281,16.4389,47.3116,39.3578,50.1298,62.2115,2.2868,18.5455-22.8902,46.0751-42.6911,59.9591-16.0977,11.2873-42.2875,8.2452-68.8421,12.2963,31.7446,118.2074,23.1758,224.2154-99.219,290.3289-76.2223,41.1724-149.1084,37.1591-219.6666-12.7055-98.9364-69.9198-108.5637-165.5322-74.5281-278.6764Zm-398.264-804.51c-8.2403-86.1975-14.0362-166.9194-25.2207-246.8911-2.2404-16.019-24.6098-41.291-38.3684-41.7377-107.1161-3.4774-214.3965-1.9218-329.845-1.9218,33.4823,92.2055,63.7413,178.7545,97.217,264.0467,4.7045,11.9863,24.9567,24.9768,38.3426,25.3389,84.8184,2.2943,169.7299,1.165,257.8746,1.165Zm81.0346-286.986c8.4649,89.0671,15.7903,175.0048,25.9496,260.6077,1.1315,9.5353,18.226,24.3404,28.1835,24.5576,88.4813,1.93,177.0225,1.1225,268.6244,1.1225,10.2174-98.6097,19.8231-191.3143,29.6637-286.2877h-352.4212Zm462.6236-1.554c-10.2041,97.5083-19.9178,190.3289-30.2155,288.7311,86.8727,0,166.4506,.8501,245.9711-.9025,12.1405-.2676,31.4215-9.9757,34.855-19.7186,30.8742-87.6123,58.9435-176.2086,89.0124-268.1099h-339.623Zm-421.2752,400.0536c8.9705,91.8902,16.084,176.2834,26.7493,260.2272,1.4221,11.1935,20.4423,28.149,32.0021,28.7278,58.6666,2.9373,117.5601,1.3533,178.159,1.3533,10.5884-98.4689,20.5867-191.4486,30.8454-286.8518-12.6794-1.4344-21.6138-3.2952-30.5536-3.3229-75.7165-.234-151.4341-.1336-237.2022-.1336Zm-82.0968,283.4526c-8.9078-83.9127-16.5689-166.7049-27.6455-249.0397-1.6726-12.4342-18.9045-32.1162-29.5451-32.5193-74.929-2.8383-150.0167-1.5062-231.411-1.5062,19.8001,55.31,36.0038,102.2167,53.3418,148.7021q55.0252,147.5293,214.2798,140.0106c3.5131-.165,6.9564-1.8057,20.98-5.6475Zm712.5092-282.3076c-51.1379,0-93.7095,0-136.2811,0-109.0565-.0002-109.9359-.1273-125.7674,108.9316-8.5946,59.2061-13.5988,118.9309-20.5656,181.5043,57.111,0,105.5445,3.6793,152.8947-1.8608,18.2382-2.1339,43.0203-21.9595,49.3646-39.3411,28.9267-79.2475,52.357-160.4923,80.3548-249.2341Zm-157.4345,689.1485c-59.943-.5994-107.4904,44.4822-108.3872,102.7659-.8584,55.804,49.5626,107.9491,104.9155,108.5029,56.2171,.5626,107.537-49.1532,108.442-105.0521,.9333-57.6654-46.47-105.6318-104.9704-106.2167Zm-839.5124,104.0312c-.178,59.6629,46.0589,107.5105,103.6304,107.2401,54.9947-.2583,107.5615-52.1034,107.9545-106.4722,.4126-57.0968-47.7787-104.4291-106.7873-104.8843-61.3443-.4732-104.6139,42.515-104.7976,104.1164Z" fill="#fff"/>
</svg>